<?xml version="1.0" standalone="no"?>
<!DOCTYPE svg PUBLIC "-//W3C//DTD SVG 20010904//EN"
 "http://www.w3.org/TR/2001/REC-SVG-20010904/DTD/svg10.dtd">
<svg version="1.0" xmlns="http://www.w3.org/2000/svg"
 width="460.000000pt" height="460.000000pt" viewBox="0 0 460.000000 460.000000"
 preserveAspectRatio="xMidYMid meet">
<metadata>
Created by potrace 1.11, written by Peter Selinger 2001-2013
</metadata>
<g transform="translate(0.000000,460.000000) scale(0.100000,-0.100000)"
fill="#000000" stroke="none">
<path d="M0 2300 l0 -2300 754 0 c678 0 754 2 760 16 11 28 6 89 -9 108 -8 11
-15 26 -15 33 0 8 -9 33 -20 55 -11 23 -20 48 -20 55 0 7 -3 13 -7 13 -5 0
-17 18 -27 40 -11 22 -23 40 -28 40 -4 0 -8 10 -8 23 0 12 -9 29 -20 37 -11 8
-20 21 -20 30 0 9 -9 23 -20 33 -12 10 -18 22 -15 27 3 6 1 10 -4 10 -6 0 -11
9 -11 20 0 11 -4 20 -10 20 -5 0 -10 11 -10 25 0 14 -4 25 -10 25 -5 0 -10 5
-10 10 0 6 -11 33 -25 62 -14 28 -25 60 -25 69 0 10 -4 19 -8 21 -10 4 -62
115 -62 133 0 7 -4 17 -10 20 -5 3 -10 19 -10 36 0 16 -4 29 -10 29 -6 0 -10
47 -10 120 0 73 4 120 10 120 6 0 10 25 10 55 0 30 5 55 10 55 6 0 10 15 10
33 0 51 11 77 31 77 11 0 19 5 19 10 0 6 -14 10 -31 10 -17 0 -37 6 -45 14
-16 17 -19 52 -4 61 6 3 10 15 10 26 0 10 5 19 10 19 6 0 10 14 10 30 0 17 11
53 25 82 14 28 25 60 25 70 0 10 5 18 10 18 6 0 10 16 10 35 0 19 4 35 9 35 5
0 11 15 14 33 7 44 28 118 38 139 5 10 9 29 9 43 0 14 5 25 10 25 6 0 10 11
10 25 0 14 5 25 10 25 6 0 10 11 10 25 0 14 4 25 9 25 5 0 12 13 16 30 7 32
64 95 95 105 11 4 20 11 20 16 0 5 7 9 15 9 8 0 15 5 15 10 0 6 11 10 25 10
14 0 34 8 44 17 21 17 107 53 129 53 7 0 24 11 38 25 14 14 39 32 57 41 18 9
46 32 63 50 18 19 39 34 48 34 9 0 16 5 16 11 0 6 6 17 13 24 27 31 37 44 37
50 0 8 27 35 34 35 3 0 8 -16 12 -36 5 -25 9 -32 15 -22 12 18 11 58 -1 58
-19 0 -10 18 11 23 l21 6 -21 22 c-11 12 -23 31 -27 41 -3 10 -10 18 -15 18
-5 0 -9 9 -9 20 0 11 -4 20 -10 20 -5 0 -10 7 -10 15 0 18 -12 19 -28 3 -10
-10 -15 -10 -22 2 -8 13 -11 13 -19 1 -7 -11 -15 -7 -40 16 -17 17 -31 38 -31
47 0 9 -4 16 -10 16 -6 0 -10 26 -10 59 0 38 -4 61 -12 64 -7 3 -3 6 10 6 27
1 52 -20 52 -43 0 -9 5 -16 10 -16 6 0 10 7 10 16 0 24 28 46 49 39 10 -3 23
0 28 7 13 16 14 68 2 68 -5 0 -9 -4 -9 -10 0 -5 -22 -10 -50 -10 l-50 0 -2 48
c-1 53 -1 59 7 122 6 44 17 60 45 60 9 0 22 9 30 21 29 41 47 59 54 52 3 -3 6
2 6 13 0 17 44 54 64 54 3 0 6 -15 6 -33 0 -46 9 -51 36 -22 13 14 30 25 39
25 8 0 15 5 15 10 0 6 5 10 12 10 6 0 19 7 28 15 17 15 50 11 50 -6 0 -5 11
-9 25 -9 14 0 25 4 25 9 0 18 31 20 77 3 41 -15 86 -42 69 -42 -3 0 8 -13 24
-29 17 -15 30 -35 30 -44 0 -9 5 -19 10 -22 6 -4 10 -25 8 -47 -2 -44 -22 -58
-79 -58 -16 0 -29 -4 -29 -10 0 -5 -11 -10 -25 -10 -14 0 -25 -4 -25 -10 0 -5
-9 -10 -20 -10 -11 0 -20 -4 -20 -10 0 -5 23 -10 51 -10 42 0 52 3 56 20 11
40 73 15 73 -29 0 -15 6 -21 21 -21 29 0 45 -20 44 -55 -1 -37 -14 -86 -28
-103 -5 -7 -7 -30 -3 -53 4 -26 2 -46 -5 -55 -6 -8 -9 -20 -6 -29 4 -8 0 -21
-8 -29 -8 -8 -15 -19 -15 -25 0 -6 -4 -11 -10 -11 -5 0 -10 -8 -10 -18 0 -10
-11 -25 -25 -32 -14 -7 -25 -19 -25 -26 0 -8 -15 -14 -37 -16 -26 -2 -38 -8
-38 -18 0 -8 -10 -16 -22 -18 -13 -2 -23 -7 -23 -11 0 -4 -10 -12 -22 -18 -24
-11 -61 -2 -73 16 -3 6 -16 11 -28 11 -13 0 -29 9 -37 20 -8 11 -21 20 -30 20
-12 -1 -12 -3 3 -14 9 -7 17 -22 17 -33 0 -15 7 -20 31 -20 17 0 34 -6 39 -13
5 -8 20 -11 39 -8 26 4 32 1 37 -18 4 -16 16 -24 41 -29 20 -3 48 -20 66 -38
19 -19 32 -27 35 -19 5 17 72 16 72 -2 0 -8 -6 -17 -13 -19 -6 -3 -2 -6 11 -6
16 -1 22 5 22 19 0 11 4 20 10 20 5 0 12 11 16 25 4 16 13 25 25 25 21 0 25
15 6 24 -9 5 -9 7 0 12 7 3 13 12 13 20 0 8 5 14 10 14 6 0 10 -5 10 -11 0
-18 24 -36 65 -49 22 -7 55 -19 73 -26 18 -8 46 -14 62 -14 17 0 30 -4 30 -10
0 -5 20 -10 45 -10 25 0 45 -4 45 -10 0 -5 11 -10 23 -10 26 0 83 -25 92 -41
4 -5 13 -9 21 -9 20 0 44 -24 44 -44 0 -9 5 -16 10 -16 6 0 18 -16 27 -35 9
-19 20 -35 25 -35 4 0 8 -9 8 -20 0 -11 4 -20 9 -20 5 0 17 -27 27 -60 11 -33
22 -60 27 -60 4 0 7 -11 7 -25 0 -14 5 -25 10 -25 6 0 10 -9 10 -20 0 -11 5
-20 10 -20 6 0 10 -8 10 -19 0 -10 11 -44 25 -75 14 -31 25 -65 25 -76 0 -11
5 -20 10 -20 6 0 10 -9 10 -20 0 -11 5 -20 10 -20 6 0 10 -9 10 -19 0 -10 7
-21 15 -25 9 -3 15 -18 15 -36 0 -16 5 -30 10 -30 6 0 10 -9 10 -20 0 -11 5
-20 10 -20 6 0 10 -11 10 -25 0 -14 -4 -25 -10 -25 -5 0 -10 -5 -10 -11 0 -16
-31 -38 -52 -39 -10 0 -18 -4 -18 -10 0 -5 -7 -10 -15 -10 -9 0 -26 -9 -38
-21 -12 -11 -34 -23 -49 -26 -33 -6 -27 -23 7 -23 27 0 38 -28 51 -128 4 -29
11 -55 15 -58 5 -3 9 -25 9 -50 0 -24 5 -44 10 -44 7 0 10 -145 10 -415 l0
-415 -45 0 c-38 0 -45 -3 -45 -20 0 -11 5 -20 10 -20 6 0 10 5 10 10 0 17 62
11 76 -7 16 -21 18 -53 4 -53 -5 0 -10 -6 -10 -14 0 -8 -6 -17 -12 -19 -10 -4
-10 -6 0 -6 9 -1 12 -31 12 -115 0 -66 4 -117 10 -121 6 -3 10 -19 10 -36 l0
-29 625 0 625 0 0 2300 0 2300 -2300 0 -2300 0 0 -2300z m2600 803 c0 -36 -3
-43 -20 -43 -17 0 -20 7 -20 53 0 30 3 57 7 61 14 14 33 -28 33 -71z m-200
-533 c0 -5 -4 -10 -10 -10 -5 0 -10 5 -10 10 0 6 5 10 10 10 6 0 10 -4 10 -10z"/>
<path d="M2360 3340 c0 -5 -14 -10 -30 -10 -22 0 -42 -11 -70 -39 -40 -39 -49
-64 -30 -76 6 -3 10 -1 10 5 0 18 27 40 49 40 12 0 21 6 21 15 0 9 9 15 25 15
14 0 25 5 25 10 0 6 14 10 31 10 27 0 59 19 59 34 0 3 -20 6 -45 6 -25 0 -45
-4 -45 -10z"/>
<path d="M1950 3250 c0 -5 20 -10 45 -10 25 0 45 -4 45 -10 0 -5 15 -10 34
-10 19 0 38 -4 41 -10 3 -5 23 -10 43 -9 36 1 36 1 9 9 -16 5 -37 18 -46 29
-16 18 -30 21 -95 21 -44 0 -76 -4 -76 -10z"/>
<path d="M2023 3193 c-44 -6 -42 -23 2 -23 24 0 35 5 35 15 0 8 -1 14 -2 13
-2 0 -18 -3 -35 -5z"/>
<path d="M2270 3000 c0 -5 -25 -10 -56 -10 -34 0 -53 -4 -49 -10 3 -5 30 -10
60 -10 30 0 57 5 60 10 3 6 15 10 26 10 10 0 19 5 19 10 0 6 -13 10 -30 10
-16 0 -30 -4 -30 -10z"/>
<path d="M1911 2934 c0 -11 3 -14 6 -6 3 7 2 16 -1 19 -3 4 -6 -2 -5 -13z"/>
<path d="M2310 2914 c0 -3 7 -12 15 -20 12 -12 18 -12 35 -2 29 19 25 28 -15
28 -19 0 -35 -3 -35 -6z"/>
<path d="M2200 2890 c0 -5 5 -10 11 -10 5 0 7 5 4 10 -3 6 -8 10 -11 10 -2 0
-4 -4 -4 -10z"/>
<path d="M2140 2870 c-11 -7 -7 -10 18 -10 20 0 31 4 27 10 -8 13 -26 13 -45
0z"/>
<path d="M2040 2730 c0 -5 5 -10 10 -10 6 0 10 5 10 10 0 6 -4 10 -10 10 -5 0
-10 -4 -10 -10z"/>
<path d="M2103 2386 c-7 -8 -13 -27 -15 -42 -2 -21 2 -29 16 -32 10 -2 22 2
27 9 6 10 13 8 28 -10 12 -13 21 -28 21 -33 0 -4 5 -8 10 -8 6 0 10 11 10 24
0 13 5 26 12 28 6 2 -4 11 -23 20 -19 9 -41 26 -49 37 -17 24 -21 25 -37 7z"/>
<path d="M2655 2363 c-4 -13 -11 -23 -15 -23 -18 0 -50 -39 -44 -54 7 -17 34
-22 34 -6 0 6 12 10 28 10 26 1 26 1 7 16 -16 12 -17 17 -7 23 8 5 12 19 9 32
l-4 24 -8 -22z"/>
<path d="M2245 2300 c4 -6 11 -8 16 -5 14 9 11 15 -7 15 -8 0 -12 -5 -9 -10z"/>
<path d="M2554 2278 c-7 -5 -23 -21 -37 -34 -15 -13 -29 -24 -32 -24 -4 0 -14
-7 -22 -16 -14 -13 -14 -17 -2 -25 19 -12 25 -11 43 6 8 8 28 15 45 15 31 0
43 14 19 22 -9 3 -8 9 5 22 31 31 13 64 -19 34z"/>
<path d="M2066 2261 c-4 -5 -2 -12 3 -15 5 -4 12 -2 15 3 4 5 2 12 -3 15 -5 4
-12 2 -15 -3z"/>
<path d="M2045 2230 c3 -5 8 -10 11 -10 2 0 4 5 4 10 0 6 -5 10 -11 10 -5 0
-7 -4 -4 -10z"/>
<path d="M2020 2210 c0 -5 5 -10 11 -10 5 0 7 5 4 10 -3 6 -8 10 -11 10 -2 0
-4 -4 -4 -10z"/>
<path d="M2430 2160 c0 -5 -7 -10 -15 -10 -8 0 -15 -3 -15 -6 0 -10 28 -34 39
-34 15 0 14 17 -1 24 -10 5 -10 7 0 12 14 7 16 24 2 24 -5 0 -10 -4 -10 -10z"/>
<path d="M3050 1961 c0 -5 7 -11 15 -15 9 -3 15 0 15 9 0 8 -7 15 -15 15 -8 0
-15 -4 -15 -9z"/>
<path d="M3053 1815 c-17 -18 -16 -25 1 -25 8 0 17 -6 19 -12 3 -7 6 2 6 20 1
34 -7 40 -26 17z"/>
<path d="M1657 1797 c-13 -35 -8 -97 8 -97 16 0 19 43 6 90 -6 22 -8 23 -14 7z"/>
<path d="M3040 1725 c0 -25 4 -45 9 -45 5 0 9 20 9 45 -1 25 -5 45 -10 45 -4
0 -8 -20 -8 -45z"/>
<path d="M1657 1674 c-4 -4 -7 -16 -7 -26 0 -11 -7 -18 -20 -18 -17 0 -20 -7
-20 -53 0 -43 -4 -55 -22 -66 -16 -10 -23 -10 -26 -2 -2 6 -8 11 -13 11 -11 0
-7 -23 6 -32 6 -5 5 -8 -2 -8 -7 0 -13 -9 -13 -21 0 -12 4 -17 11 -14 16 11
-12 -35 -44 -68 -15 -17 -30 -47 -33 -69 -4 -21 -10 -38 -15 -38 -5 0 -9 -7
-9 -15 0 -8 -4 -15 -10 -15 -5 0 -10 -12 -10 -26 0 -14 -7 -33 -16 -41 -22
-23 -15 -124 14 -182 12 -25 22 -53 22 -62 0 -10 5 -21 10 -24 6 -3 10 -15 10
-26 0 -10 4 -19 9 -19 5 0 12 -18 16 -40 4 -22 11 -42 16 -46 5 -3 9 -21 9
-40 0 -19 5 -34 10 -34 6 0 10 -13 10 -29 0 -17 4 -32 9 -35 4 -3 11 -20 15
-38 7 -35 16 -30 36 20 11 28 10 40 -5 85 -17 50 -17 54 1 95 10 23 22 42 26
42 5 0 8 12 8 28 1 30 21 62 39 62 6 0 11 15 11 35 0 19 -4 35 -8 35 -5 0 -17
18 -28 40 -10 22 -22 40 -26 40 -5 0 -8 11 -8 24 0 13 -5 26 -12 28 -12 4 -28
127 -31 232 -1 40 2 61 11 64 6 2 10 8 6 13 -3 5 6 9 20 9 24 0 26 3 26 50 0
36 6 57 19 71 10 11 21 33 23 49 5 32 -4 64 -15 54z"/>
<path d="M1571 1588 c0 -18 -7 -28 -16 -28 -8 0 -15 -4 -15 -10 0 -15 30 -12
36 4 3 8 4 25 1 38 -4 21 -4 20 -6 -4z"/>
<path d="M3017 1520 c-3 -25 -5 -80 -5 -124 0 -50 -4 -81 -12 -86 -8 -5 -7 -9
6 -14 9 -3 19 -4 22 -1 9 9 11 225 3 248 -7 18 -10 14 -14 -23z"/>
<path d="M1348 1393 c6 -2 18 -2 25 0 6 3 1 5 -13 5 -14 0 -19 -2 -12 -5z"/>
<path d="M3038 1186 c-27 -20 -30 -56 -18 -177 16 -151 20 -348 8 -355 -9 -6
-4 -122 8 -190 3 -18 1 -35 -5 -38 -14 -9 6 -53 38 -86 16 -16 26 -20 29 -12
2 7 8 12 14 12 6 0 21 12 34 27 24 28 18 43 -17 43 -13 0 -17 20 -22 130 -4
72 -11 139 -17 149 -5 11 -10 49 -10 85 0 37 -4 66 -10 66 -6 0 -10 51 -10
134 0 98 -3 136 -12 139 -10 4 -10 7 0 15 8 5 12 22 10 40 -3 27 -5 29 -20 18z"/>
<path d="M3250 352 c0 -7 -7 -12 -15 -12 -8 0 -15 -4 -15 -10 0 -5 14 -10 31
-10 28 0 30 2 18 18 -7 9 -15 19 -16 21 -2 2 -3 -1 -3 -7z"/>
<path d="M2860 260 c0 -5 5 -10 11 -10 5 0 7 5 4 10 -3 6 -8 10 -11 10 -2 0
-4 -4 -4 -10z"/>
<path d="M3015 81 c3 -6 -10 -13 -30 -17 -19 -3 -35 -10 -35 -14 0 -14 -61
-33 -101 -32 -21 1 -39 -3 -39 -8 0 -6 30 -10 70 -10 40 0 70 4 70 10 0 6 14
10 30 10 20 0 30 5 30 15 0 8 5 15 10 15 6 0 10 9 10 20 0 11 -5 20 -11 20 -5
0 -8 -4 -4 -9z"/>
</g>
</svg>
